# xmcd CD database file
#
# Track frame offsets:
#	150
#	20578
#	49063
#	76597
#	104866
#	130434
#	156955
#	179338
#	210815
#
# Disc length: 3112 seconds
#
# Revision: 0
# Processed by: cddbd v1.5.2PL0 Copyright (c) Steve Scherf et al.
# Submitted via: CD2WAV32(JP) R3.22
#
DISCID=720c2609
DTITLE=Alstroemeria Records - Harmony
DYEAR=2007
DGENRE=Acapella
TTITLE0=Cheek Colours
TTITLE1=Dark Road
TTITLE2=Alice Maestera
TTITLE3=Voile,the Magic Library
TTITLE4=Wind's Believer
TTITLE5=Harmony
TTITLE6=interlude
TTITLE7=Maple Wizen (2007AW Re-Mastered)
TTITLE8=Suwa Foughten Field
EXTD=
EXTT0=
EXTT1=
EXTT2=
EXTT3=
EXTT4=
EXTT5=
EXTT6=
EXTT7=
EXTT8=
PLAYORDER=
